PathFileType	4	(X/Y/Z)	Run_500 03
DataRate	CameraRate	NumFrames	NumMarkers	Units	OrigDataRate	OrigDataStartFrame	OrigNumFrames
100	100	5	42	mm	100	140	128
Frame#	Time	RASI			LPSI			RPSI			RTH1			RTH2			RTH3			LTH1			LTH2			LTH3			RTB1			RTB2			RTB3			LTB1			LTB2			LTB3			RCAL			RTOE			RMT5			LCAL			LTOE			LMT5			LACR			RACR			CLAV			C7			RUA1			RUA2			RUA3			RLEL			RMEL			LUA1			LUA2			LUA3			LLEL			LMEL			RFAsuperior			RFAradius			RFAulna			LFAsuperior			LFAradius			LFAulna			LASI		
		X1	Y1	Z1	X2	Y2	Z2	X3	Y3	Z3	X4	Y4	Z4	X5	Y5	Z5	X6	Y6	Z6	X7	Y7	Z7	X8	Y8	Z8	X9	Y9	Z9	X10	Y10	Z10	X11	Y11	Z11	X12	Y12	Z12	X13	Y13	Z13	X14	Y14	Z14	X15	Y15	Z15	X16	Y16	Z16	X17	Y17	Z17	X18	Y18	Z18	X19	Y19	Z19	X20	Y20	Z20	X21	Y21	Z21	X22	Y22	Z22	X23	Y23	Z23	X24	Y24	Z24	X25	Y25	Z25	X26	Y26	Z26	X27	Y27	Z27	X28	Y28	Z28	X29	Y29	Z29	X30	Y30	Z30	X31	Y31	Z31	X32	Y32	Z32	X33	Y33	Z33	X34	Y34	Z34	X35	Y35	Z35	X36	Y36	Z36	X37	Y37	Z37	X38	Y38	Z38	X39	Y39	Z39	X40	Y40	Z40	X41	Y41	Z41	X42	Y42	Z42	

140	  1.400000	739.949453	955.507471	-216.689795	548.945909	1048.109116	-362.757672	557.829561	1044.448476	-280.942855	704.024454	836.434928	-141.118296	795.466385	720.141997	-145.616215	756.164655	607.447361	-139.236621	660.687198	855.412614	-516.374895	753.242699	754.626405	-496.600455	700.986001	605.038713	-483.714222	674.764780	467.898920	-217.187462	576.114913	523.557956	-169.424468	481.922448	513.062175	-241.502091	743.740703	377.679394	-407.737467	661.548686	320.114041	-468.181493	642.853750	197.243939	-384.090491	375.262089	660.146602	-263.184946	317.517199	434.597484	-282.569852	282.482984	465.162179	-198.857993	462.330589	 96.699070	-350.867016	695.047991	 67.918601	-392.231604	645.193576	 49.569183	-469.567860	746.150273	1455.453369	-553.002442	725.796597	1472.892355	-202.792268	804.726107	1431.350203	-344.286667	671.107594	1509.264061	-397.492830	655.213448	1381.951059	-110.938947	571.128374	1318.305996	-136.484462	595.599700	1285.182084	-71.125910	558.918891	1201.398597	-30.046383	527.667867	1182.435309	-101.853326	716.957994	1359.826048	-653.418557	660.447542	1273.997218	-661.697656	719.814681	1255.404895	-715.957697	737.816290	1176.799468	-758.688308	672.039368	1138.369503	-732.096411	579.393309	1123.534992	-11.100825	682.236616	948.607017	-44.691859	620.417925	934.004446	-13.406021	818.778810	1095.478678	-702.121977	886.545932	1049.077923	-568.110852	873.243934	996.021291	-611.451245	730.533515	943.527314	-467.214267	
141	  1.410000	737.633240	959.018267	-214.810362	547.887157	1049.722711	-366.340542	555.092724	1045.984031	-283.920942	702.634416	840.903040	-142.414458	809.830454	735.927801	-149.472306	781.108615	620.707889	-141.990735	656.282998	853.772237	-516.740677	742.836544	747.420960	-495.706099	680.638094	601.836838	-483.888198	709.674426	475.358677	-221.546011	606.750958	521.556221	-171.623871	513.789462	504.195118	-242.301170	709.287778	372.107867	-407.354905	624.231561	319.452959	-468.062523	598.845916	197.433653	-384.997607	391.334971	642.267457	-259.734148	357.585978	412.251208	-282.575028	321.269167	437.375935	-197.219888	413.749052	103.844747	-352.697380	644.533968	 67.879248	-393.731911	594.340519	 49.788304	-470.772634	750.766037	1457.332833	-551.399838	721.889735	1475.555294	-202.352615	803.775419	1432.911412	-342.273629	671.349919	1511.057955	-398.089609	646.117679	1387.043411	-112.510939	562.686649	1324.474478	-142.336859	583.107273	1292.447294	-74.575796	544.574146	1209.482053	-32.769209	515.495986	1190.841109	-105.362135	727.336876	1359.569417	-651.211040	672.451072	1270.565052	-656.766942	732.298636	1254.602758	-711.703248	755.192122	1176.414040	-752.587616	692.531411	1134.521913	-726.498959	562.360139	1130.930294	-13.026304	662.004082	953.953507	-42.230588	598.299565	940.132680	-15.069345	840.742937	1101.623597	-692.998714	909.246469	1063.965404	-556.415288	900.876009	1009.943174	-600.573462	729.550262	942.782448	-465.217765	
142	  1.420000	735.420929	965.713996	-212.928928	548.174246	1052.841240	-370.284649	553.056867	1049.317887	-287.105518	702.360351	847.419418	-143.277378	821.309020	753.995061	-153.113775	803.174927	637.097934	-145.816840	652.545984	853.843751	-517.222607	730.816816	741.464663	-495.303489	658.651008	600.936942	-483.936170	742.747209	484.594546	-225.000054	636.077944	520.190917	-174.096022	546.102515	493.716060	-243.271803	673.539116	369.919006	-407.532643	585.417867	322.045499	-468.258988	555.346495	200.584335	-386.071123	406.840309	619.590140	-257.896095	399.477705	387.176119	-281.700374	362.021622	407.511693	-195.699684	366.819016	113.915269	-354.407171	594.547201	 67.684531	-394.640831	543.903459	 50.123531	-471.273669	755.848947	1461.212307	-548.870863	717.762808	1479.689638	-201.402443	803.054184	1436.117167	-339.202868	671.661814	1514.501682	-398.220628	636.638480	1394.114839	-114.189523	553.825411	1331.701384	-147.057789	571.032058	1301.326148	-77.213674	530.343836	1219.032793	-35.281624	502.842847	1200.953805	-108.253591	737.773309	1361.778650	-648.383361	683.722733	1270.456797	-652.048119	743.788654	1255.650354	-706.348448	770.705060	1178.091490	-745.789632	711.930979	1132.945671	-719.493641	545.585766	1139.923997	-15.292160	643.936613	962.016090	-41.373581	578.585187	948.513121	-18.379778	860.559900	1110.702902	-683.224525	929.880751	1083.300229	-544.598423	926.244038	1028.675713	-589.142443	728.624773	945.186286	-463.281390	
143	  1.430000	733.203374	975.110289	-211.565031	549.490748	1057.333493	-373.915587	551.705752	1054.448801	-289.995256	704.135978	856.577930	-143.728509	830.337447	772.873398	-156.359091	822.006177	655.421914	-150.389700	649.445550	855.820985	-517.431347	717.601149	737.981077	-495.284472	635.521140	602.725472	-483.828747	773.633105	494.818968	-228.059986	664.286081	518.983428	-176.725604	578.135607	482.233036	-244.374520	637.368955	371.099852	-408.305106	546.600783	327.482282	-468.883568	512.668285	206.512493	-387.053395	423.240896	592.331165	-257.595606	443.837795	360.485777	-280.143081	405.432896	376.593254	-194.343280	321.979622	126.950523	-356.418968	545.116916	 67.085798	-394.867959	493.946314	 50.581078	-471.063226	761.048768	1466.993384	-545.380814	713.359005	1485.357993	-200.189436	802.331826	1441.174805	-335.478063	672.183471	1519.524617	-397.920271	627.708979	1402.813433	-115.592796	545.333260	1340.012715	-150.853529	559.701315	1311.537184	-79.071055	516.703870	1229.788201	-37.799119	490.362366	1212.395378	-111.035199	747.363269	1366.187740	-645.028955	694.212352	1273.201455	-647.571105	754.591897	1258.558133	-700.382808	784.791545	1181.530402	-738.463372	729.642007	1133.689633	-711.155091	529.871536	1150.281364	-17.960640	627.650240	971.718331	-42.150556	561.147068	958.602918	-22.509277	878.152946	1122.220630	-672.761646	947.864227	1105.986429	-532.782360	948.539712	1050.304472	-575.911330	727.595259	950.378038	-462.100576	
144	  1.440000	731.557312	986.221018	-211.018779	551.663820	1062.835144	-376.988760	551.146901	1060.836587	-292.509495	707.794948	867.860948	-144.098452	838.493148	791.619130	-159.334950	837.669399	674.404338	-155.323312	646.797624	859.231481	-517.291293	704.398311	737.174188	-495.478454	612.269262	607.407751	-483.889354	802.332295	505.362959	-231.310930	691.350581	517.492209	-179.594661	608.982923	470.396254	-245.834153	601.751600	375.531889	-410.201325	508.748160	335.759848	-470.211078	471.387928	214.916489	-388.506707	441.559494	561.017634	-258.660313	491.369861	333.459105	-278.463965	452.014072	345.673170	-193.033973	279.396568	142.590479	-358.975317	495.889795	 66.388932	-394.671762	444.320732	 51.152117	-470.423313	765.923920	1474.508389	-541.395862	708.658475	1492.452133	-198.961528	801.408426	1448.104045	-331.631550	672.705327	1525.685091	-397.339001	619.821293	1412.512625	-116.544699	537.728423	1349.707037	-153.863225	549.422251	1322.734825	-80.399107	504.141532	1241.473684	-40.461821	478.701843	1224.877233	-114.064563	755.881560	1372.365287	-641.270908	703.888819	1278.215009	-643.450459	765.017971	1263.362893	-694.194499	797.743921	1186.565726	-730.852468	745.136878	1136.947235	-701.732771	515.849100	1161.713474	-20.964699	612.786487	982.291741	-44.273121	545.644279	969.875472	-26.787253	893.494208	1135.645414	-661.770568	962.909728	1130.737342	-521.124956	967.232943	1073.231425	-560.339256	727.176138	957.422322	-461.838087	
